HIERARCHY
ROOT Hips
{
	OFFSET -0.001795 -0.223333 0.028219
	CHANNELS 6 Xposition Yposition Zposition Zrotation Yrotation Xrotation 
	JOINT LeftUpLeg
	{
		OFFSET 0.069520 -0.091406 -0.006815
		CHANNELS 3 Zrotation Yrotation Xrotation
		JOINT LeftLeg
		{
			OFFSET 0.034277 -0.375199 -0.004496
			CHANNELS 3 Zrotation Yrotation Xrotation
			JOINT LeftFoot
			{
				OFFSET -0.013596 -0.397961 -0.043693
				CHANNELS 3 Zrotation Yrotation Xrotation
				JOINT LeftToe
				{
					OFFSET 0.026358 -0.055791 0.119288
					CHANNELS 3 Zrotation Yrotation Xrotation
					End Site
					{
						OFFSET 0.000000 0.000000 0.000000
					}
				}
			}
		}
	}
	JOINT RightUpLeg
	{
		OFFSET -0.067670 -0.090522 -0.004320
		CHANNELS 3 Zrotation Yrotation Xrotation
		JOINT RightLeg
		{
			OFFSET -0.038290 -0.382569 -0.008850
			CHANNELS 3 Zrotation Yrotation Xrotation
			JOINT RightFoot
			{
				OFFSET 0.015774 -0.398415 -0.042312
				CHANNELS 3 Zrotation Yrotation Xrotation
				JOINT RightToe
				{
					OFFSET -0.025372 -0.048144 0.123348
					CHANNELS 3 Zrotation Yrotation Xrotation
					End Site
					{
						OFFSET 0.000000 0.000000 0.000000
					}
				}
			}
		}
	}
	JOINT Spine
	{
		OFFSET -0.002533 0.108963 -0.026696
		CHANNELS 3 Zrotation Yrotation Xrotation
		JOINT Spine1
		{
			OFFSET 0.005487 0.135180 0.001092
			CHANNELS 3 Zrotation Yrotation Xrotation
			JOINT Spine2
			{
				OFFSET 0.001457 0.052922 0.025425
				CHANNELS 3 Zrotation Yrotation Xrotation
				JOINT Neck
				{
					OFFSET -0.002778 0.213870 -0.042857
					CHANNELS 3 Zrotation Yrotation Xrotation
					JOINT Head
					{
						OFFSET 0.005152 0.064970 0.051349
						CHANNELS 3 Zrotation Yrotation Xrotation
						End Site
						{
							OFFSET 0.000000 0.000000 0.000000
						}
					}
				}
				JOINT LeftShoulder
				{
					OFFSET 0.078845 0.121749 -0.034090
					CHANNELS 3 Zrotation Yrotation Xrotation
					JOINT LeftArm
					{
						OFFSET 0.090977 0.030469 -0.008868
						CHANNELS 3 Zrotation Yrotation Xrotation
						JOINT LeftForeArm
						{
							OFFSET 0.259612 -0.012772 -0.027456
							CHANNELS 3 Zrotation Yrotation Xrotation
							JOINT LeftHand
							{
								OFFSET 0.249234 0.008986 -0.001171
								CHANNELS 3 Zrotation Yrotation Xrotation
								End Site
								{
									OFFSET 0.000000 0.000000 0.000000
								}
							}
						}
					}
				}
				JOINT RightShoulder
				{
					OFFSET -0.081759 0.118833 -0.038615
					CHANNELS 3 Zrotation Yrotation Xrotation
					JOINT RightArm
					{
						OFFSET -0.096012 0.032551 -0.009143
						CHANNELS 3 Zrotation Yrotation Xrotation
						JOINT RightForeArm
						{
							OFFSET -0.253742 -0.013329 -0.021401
							CHANNELS 3 Zrotation Yrotation Xrotation
							JOINT RightHand
							{
								OFFSET -0.255298 0.007772 -0.005559
								CHANNELS 3 Zrotation Yrotation Xrotation
								End Site
								{
									OFFSET 0.000000 0.000000 0.000000
								}
							}
						}
					}
				}
			}
		}
	}
}
MOTION
Frames: 6
Frame Time: 0.050000
0.000000 0.949436 0.000000 -2.222924 4.059683 7.323470 5.525228 -0.390743 -4.205740 4.600345 -0.422218 -0.550653 2.244320 9.141022 13.672939 0.000000 0.000000 0.000000 -3.884947 0.604906 -7.138707 -0.477405 -0.019433 -1.676252 1.485403 -4.584067 21.996057 0.000000 0.000000 0.000000 0.688039 0.155486 -4.073354 1.120537 -0.314683 -4.328023 0.137941 -1.584113 3.220452 0.860766 0.295796 -11.157858 0.000000 0.000000 0.000000 -18.015836 3.478684 -3.728501 -55.447740 -5.027872 -4.103977 -10.369721 -16.925658 2.133097 0.000000 0.000000 0.000000 15.473569 -2.524732 -2.610190 59.462864 5.117155 -3.020862 5.075453 14.827541 1.044881 0.000000 0.000000 0.000000 
0.000255 0.948450 0.000361 -2.379624 3.205567 7.683349 4.919721 -0.374286 -3.997445 5.747355 -0.485545 -1.199032 2.730088 9.808722 13.763185 0.000000 0.000000 0.000000 -4.127075 0.628727 -7.461056 -0.172790 -0.051931 -1.740325 2.397189 -3.042273 21.127776 0.000000 0.000000 0.000000 1.085224 0.164655 -4.221976 0.179807 0.081317 -4.505837 0.861287 -1.239315 2.797673 0.081694 0.805923 -11.507362 0.000000 0.000000 0.000000 -19.055006 4.485695 -4.364415 -54.804276 -4.522107 -4.241649 -11.415116 -17.567625 2.384397 0.000000 0.000000 0.000000 15.086192 -3.254852 -2.996756 59.933512 4.231494 -3.441728 5.775806 15.803709 1.195939 0.000000 0.000000 0.000000 
0.000461 0.947994 0.000448 -2.185430 3.714846 7.610220 4.768295 -0.375040 -3.964068 5.746968 -0.473013 -1.300181 2.476112 9.431470 13.557700 0.000000 0.000000 0.000000 -4.171409 0.617943 -7.411889 -0.655640 -0.007761 -1.781442 2.501969 -2.958764 21.746428 0.000000 0.000000 0.000000 0.810583 0.149244 -3.924520 0.384113 0.046855 -5.677508 0.294041 -1.823790 3.268890 -0.104862 0.884966 -11.089193 0.000000 0.000000 0.000000 -18.147356 3.847498 -3.840114 -55.314964 -4.308921 -4.432971 -11.140616 -17.446198 2.334037 0.000000 0.000000 0.000000 16.518844 -2.504488 -2.821863 58.624680 4.015934 -3.530056 5.438410 15.093371 1.096334 0.000000 0.000000 0.000000 
0.000647 0.947575 0.000550 -2.614907 3.513802 7.840678 4.786680 -0.392394 -4.292135 6.484221 -0.561610 -1.087063 2.677455 9.694248 13.450117 0.000000 0.000000 0.000000 -4.154110 0.678300 -8.312135 -0.326547 -0.013594 -1.180769 3.381515 -1.997364 22.982678 0.000000 0.000000 0.000000 1.045534 0.153604 -4.014322 -0.313591 0.316488 -5.273371 1.232460 -2.549095 2.230057 -0.601183 1.089359 -10.383704 0.000000 0.000000 0.000000 -17.795200 4.622082 -3.987352 -56.272211 -4.363510 -4.389740 -11.029088 -17.367786 2.334205 0.000000 0.000000 0.000000 15.730723 -2.449671 -2.932863 58.424787 3.648549 -3.594074 6.572706 15.112690 1.193100 0.000000 0.000000 0.000000 
0.000764 0.947534 0.000569 -2.467566 4.103239 7.659603 4.618080 -0.386751 -4.142486 6.627621 -0.556419 -1.241794 2.355649 9.244956 13.353866 0.000000 0.000000 0.000000 -4.187969 0.657888 -8.138905 -0.737690 0.030097 -1.137940 3.578779 -1.748868 23.552818 0.000000 0.000000 0.000000 0.738456 0.144262 -3.831710 -0.033501 0.213444 -5.402454 0.926360 -2.921882 2.383786 -0.871732 1.272517 -10.439536 0.000000 0.000000 0.000000 -17.638564 4.284567 -3.791681 -56.248654 -4.658078 -4.267870 -11.599860 -17.087734 2.379797 0.000000 0.000000 0.000000 15.690969 -2.587282 -2.984973 58.222982 3.735497 -3.556863 7.330534 14.749826 1.244817 0.000000 0.000000 0.000000 
0.000883 0.947711 0.000558 -2.494266 4.107074 7.756179 4.457507 -0.387710 -4.166582 6.949351 -0.571890 -1.392956 2.338048 9.250512 13.471309 0.000000 0.000000 0.000000 -4.249051 0.671723 -8.407692 -0.594188 0.028187 -0.854733 3.576185 -1.768711 23.609117 0.000000 0.000000 0.000000 0.521887 0.148569 -3.928448 0.013372 0.192836 -5.372018 1.223646 -3.292706 2.335789 -0.885178 1.246957 -10.354137 0.000000 0.000000 0.000000 -17.857699 4.639188 -3.919465 -56.202426 -4.694745 -4.247993 -11.778549 -17.139963 2.427510 0.000000 0.000000 0.000000 15.396448 -2.340018 -2.903005 58.102561 3.888370 -3.478717 7.490662 14.487019 1.227330 0.000000 0.000000 0.000000 
